<mxfile host="65bd71144e">
    <diagram id="K5D4nbJkQhqr_CWxr-WT" name="Chocolates Marketplace Use Case">
        <mxGraphModel dx="694" dy="736" grid="1" gridSize="10" guides="1" tooltips="1" connect="1" arrows="1" fold="1" page="1" pageScale="1" pageWidth="850" pageHeight="1100" math="0" shadow="0">
            <root>
                <mxCell id="0"/>
                <mxCell id="1" parent="0"/>
                <mxCell id="22" value="Chocolate Lover (Consumer)" style="shape=umlActor;verticalLabelPosition=bottom;verticalAlign=top;" vertex="1" parent="1">
                    <mxGeometry x="120" y="360" width="50" height="80" as="geometry"/>
                </mxCell>
                <mxCell id="23" value="Chocolate Vendor" style="shape=umlActor;verticalLabelPosition=bottom;verticalAlign=top;" vertex="1" parent="1">
                    <mxGeometry x="120" y="500" width="50" height="80" as="geometry"/>
                </mxCell>
                <mxCell id="24" value="Marketing Manager" style="shape=umlActor;verticalLabelPosition=bottom;verticalAlign=top;" vertex="1" parent="1">
                    <mxGeometry x="650" y="360" width="50" height="80" as="geometry"/>
                </mxCell>
                <mxCell id="25" value="Logistics Manager" style="shape=umlActor;verticalLabelPosition=bottom;verticalAlign=top;" vertex="1" parent="1">
                    <mxGeometry x="650" y="500" width="50" height="80" as="geometry"/>
                </mxCell>
                <mxCell id="26" value="" style="rounded=1;whiteSpace=wrap;html=1;fillColor=none;strokeColor=#000000;" vertex="1" parent="1">
                    <mxGeometry x="250" y="320" width="350" height="320" as="geometry"/>
                </mxCell>
                <mxCell id="27" value="Browse &amp; Search" style="ellipse;whiteSpace=wrap;html=1;aspect=fixed;" vertex="1" parent="26">
                    <mxGeometry x="110" y="20" width="150" height="40" as="geometry"/>
                </mxCell>
                <mxCell id="28" value="Add to Cart &amp; Checkout" style="ellipse;whiteSpace=wrap;html=1;aspect=fixed;" vertex="1" parent="26">
                    <mxGeometry x="90" y="70" width="190" height="40" as="geometry"/>
                </mxCell>
                <mxCell id="29" value="Rate &amp; Review" style="ellipse;whiteSpace=wrap;html=1;aspect=fixed;" vertex="1" parent="26">
                    <mxGeometry x="120" y="120" width="130" height="40" as="geometry"/>
                </mxCell>
                <mxCell id="30" value="Manage Inventory" style="ellipse;whiteSpace=wrap;html=1;aspect=fixed;" vertex="1" parent="26">
                    <mxGeometry x="110" y="170" width="150" height="40" as="geometry"/>
                </mxCell>
                <mxCell id="31" value="Manage Promotions" style="ellipse;whiteSpace=wrap;html=1;aspect=fixed;" vertex="1" parent="26">
                    <mxGeometry x="100" y="220" width="170" height="40" as="geometry"/>
                </mxCell>
                <mxCell id="32" value="Order Fulfillment &amp; Shipping" style="ellipse;whiteSpace=wrap;html=1;aspect=fixed;" vertex="1" parent="26">
                    <mxGeometry x="80" y="270" width="210" height="40" as="geometry"/>
                </mxCell>
                <mxCell id="33" value="Payment Gateway (External)" style="ellipse;whiteSpace=wrap;html=1;aspect=fixed;strokeDasharray=4 4;" vertex="1" parent="1">
                    <mxGeometry x="400" y="660" width="200" height="40" as="geometry"/>
                </mxCell>
                <mxCell id="34" style="edgeStyle=elbowEdgeStyle;rounded=1;orthogonalLoop=1;" edge="1" parent="1" source="22" target="27">
                    <mxGeometry relative="1" as="geometry"/>
                </mxCell>
                <mxCell id="35" style="edgeStyle=elbowEdgeStyle;rounded=1;orthogonalLoop=1;" edge="1" parent="1" source="22" target="28">
                    <mxGeometry relative="1" as="geometry"/>
                </mxCell>
                <mxCell id="36" style="edgeStyle=elbowEdgeStyle;rounded=1;orthogonalLoop=1;" edge="1" parent="1" source="22" target="29">
                    <mxGeometry relative="1" as="geometry"/>
                </mxCell>
                <mxCell id="37" style="edgeStyle=elbowEdgeStyle;rounded=1;orthogonalLoop=1;" edge="1" parent="1" source="23" target="30">
                    <mxGeometry relative="1" as="geometry"/>
                </mxCell>
                <mxCell id="38" style="edgeStyle=elbowEdgeStyle;rounded=1;orthogonalLoop=1;" edge="1" parent="1" source="24" target="31">
                    <mxGeometry relative="1" as="geometry"/>
                </mxCell>
                <mxCell id="39" style="edgeStyle=elbowEdgeStyle;rounded=1;orthogonalLoop=1;" edge="1" parent="1" source="25" target="32">
                    <mxGeometry relative="1" as="geometry"/>
                </mxCell>
                <mxCell id="40" style="edgeStyle=elbowEdgeStyle;rounded=1;orthogonalLoop=1;dashed=1;" edge="1" parent="1" source="28" target="33">
                    <mxGeometry relative="1" as="geometry"/>
                </mxCell>
            </root>
        </mxGraphModel>
    </diagram>
</mxfile>